<?xml version="1.0" encoding="UTF-8"?>
<svg xmlns="http://www.w3.org/2000/svg" id="Ebene_2" data-name="Ebene 2" viewBox="0 0 283.46 158.47">
  <defs>
    <style>.cls-1{fill:#575756;}.cls-2{fill:#58b887;}.cls-3{fill:#bce3cf;}.cls-4{fill:#8acdab;}</style>
  </defs>
  <path class="cls-1" d="M279.49,307.37l-.22-.64L280.9,303a26.3,26.3,0,0,0,9.72,2.11c4.85,0,9-2.69,9-6.73s-2.46-6.79-8.66-9.36c-8.84-3.81-10.77-7.37-10.77-12.82,0-4.56,3.51-10.06,12.7-10.06a26,26,0,0,1,10.71,1.81l.23.59-1.76,3.8a24.62,24.62,0,0,0-9.65-1.93c-4.63,0-6.85,2.52-6.85,5.62s1.76,5.73,7.5,8.13c9.65,4.21,12,7.78,12,13.46s-3.74,11.7-14.75,11.7A28.64,28.64,0,0,1,279.49,307.37Z" transform="translate(-279.27 -204.25)"></path>
  <path class="cls-1" d="M343.53,280.16c7.08,0,9.3,4.21,9.3,10.36v18h-5V291c0-4.1-1.4-6.73-5.32-6.73-2.46,0-4.16.82-7.49,3.16a16.19,16.19,0,0,1,.29,3v18.08h-5V291c0-4.1-1.41-6.73-5.33-6.73-2.46,0-4.15.82-7.19,3v21.24h-5V286.72c0-2.46-1.34-3.4-3.33-3.22-.88-1.87.12-3.34,3.1-3.34a4.64,4.64,0,0,1,4.8,3.28,13.87,13.87,0,0,1,8.71-3.28c4,0,6.5,1.35,7.9,3.8C336.74,281.74,339.84,280.16,343.53,280.16Z" transform="translate(-279.27 -204.25)"></path>
  <path class="cls-1" d="M385.45,306c.89,1.87-.11,3.33-3,3.33-2.34,0-4.09-1.05-4.73-3.22a13,13,0,0,1-9.08,3.22c-4.56,0-8.13-2-8.13-6.9,0-5.21,3.74-8.37,13.4-9.37l3.21-.29c.42-6.38-1.92-8.6-5.9-8.6-2.75,0-4.74.64-8,1.58l-1.11-3.33.35-.71a32.34,32.34,0,0,1,9.77-1.52c5.16,0,9.95,1.81,9.95,9.83v12.76C382.12,305.21,383.47,306.15,385.45,306Zm-19.66-4c0,2.28,2,3.39,4,3.39a11.94,11.94,0,0,0,7.25-2.63v-6.21C368.66,297,365.79,298.83,365.79,302Z" transform="translate(-279.27 -204.25)"></path>
  <path class="cls-1" d="M397.7,308.48h-5V286.72c0-2.46-1.35-3.4-3.33-3.22-.88-1.87.12-3.34,3.09-3.34,2.4,0,4.86,1.23,5,5.09a11,11,0,0,1,9-5.09,13.33,13.33,0,0,1,4.57.76l.23.71-2,3.92-.7.05a7.05,7.05,0,0,0-3.28-.82,9.17,9.17,0,0,0-7.61,5Z" transform="translate(-279.27 -204.25)"></path>
  <path class="cls-1" d="M431,280.69l.47.59-.71,3.62h-8.18v16.15c0,2.34.87,4,3.22,4a25.46,25.46,0,0,0,6.49-1.11l1,3.51-.41.64a30.73,30.73,0,0,1-8.5,1.23c-4.56,0-6.84-2.81-6.84-8V284.9h-4l-.47-.59.76-3.33h3.75v-9.07L422,271l.59.41V281Z" transform="translate(-279.27 -204.25)"></path>
  <path class="cls-1" d="M458,309.3c-11.88,0-20.6-6.9-20.6-21.48,0-12.75,8.67-21.7,20.66-21.7a32.63,32.63,0,0,1,11.76,1.7l.23.64-1.52,3.8a30.69,30.69,0,0,0-10.29-1.81c-9,0-15.23,7.25-15.23,17.32S449.16,305,458.18,305c3.69,0,6.67-.35,8.6-1.29V293.5H455.6l-.47-.53.82-3.68h15.92v17.32C468.29,308.42,464.38,309.3,458,309.3Z" transform="translate(-279.27 -204.25)"></path>
  <path class="cls-1" d="M486,308.48h-5V286.72c0-2.46-1.34-3.4-3.33-3.22-.88-1.87.11-3.34,3.09-3.34,2.41,0,4.86,1.23,5,5.09a11,11,0,0,1,9-5.09,13.25,13.25,0,0,1,4.57.76l.23.71-2,3.92-.7.05a7.08,7.08,0,0,0-3.28-.82,9.2,9.2,0,0,0-7.61,5Z" transform="translate(-279.27 -204.25)"></path>
  <path class="cls-1" d="M544.41,309.3c-2.28,0-4-1-4.56-2.87-2.28,1.88-6.08,2.87-9.72,2.87-7,0-12-4.21-12-13.34,0-10,6-15.8,14.27-15.8a41.6,41.6,0,0,1,6.8.64V264.48l4.44-.94.59.47v38.74c0,2.46,1.34,3.4,3.34,3.22C548.33,307.84,547.33,309.3,544.41,309.3Zm-5.26-6.09V285.13a22.49,22.49,0,0,0-6.56-1.05c-6,0-9.18,4.1-9.18,10.83,0,6,2.57,10.36,8.19,10.36A17.51,17.51,0,0,0,539.15,303.21Z" transform="translate(-279.27 -204.25)"></path>
  <path class="cls-2" d="M400.11,347.1H392.5V325.63c0-2.23-1.52-2.81-3.46-2.28-1.75-2.05-.82-5.15,5-5.15,3.39,0,5.62,1.28,5.79,5.73a10.66,10.66,0,0,1,14.29-4.57l.4,1.23-2.63,5.85-1.35.24a6.25,6.25,0,0,0-3.86-1.41,8.45,8.45,0,0,0-6.61,3.75Z" transform="translate(-279.27 -204.25)"></path>
  <path class="cls-2" d="M432.13,341.72a20.68,20.68,0,0,0,8.14-1.58l1.76,4.39-.36,1.34a24,24,0,0,1-10.47,2.05c-8,0-14.05-3.75-14.05-14.4,0-10.47,7-15.32,14.57-15.32,8.43,0,11.82,5.26,11.82,15l-.82,1H425C425.11,338.85,427.27,341.72,432.13,341.72Zm4.1-12.17c-.18-3.51-1.7-6-4.92-6-2.75,0-5.5,1.64-6.2,6.38Z" transform="translate(-279.27 -204.25)"></path>
  <path class="cls-2" d="M476.15,342.77c1.76,2.05.82,5.15-5,5.15-3,0-4.68-1-5.32-3.28a13,13,0,0,1-9.19,3.28c-4.57,0-8.14-2.05-8.14-6.85,0-5.55,3.52-8.66,13.7-10.06l2.93-.41c.23-5.21-1.7-6.85-5.62-6.85a31.78,31.78,0,0,0-8.08,1.35l-1.46-4.28.76-1.16a43.45,43.45,0,0,1,11.06-1.46c6.38,0,11,2.1,11,9.41v12.88C472.75,342.77,474.22,343.29,476.15,342.77Zm-19.72-2.69c0,1.64,1.41,2.69,3.34,2.69A10.06,10.06,0,0,0,465.1,341v-5.62C458.84,335.87,456.43,337.5,456.43,340.08Z" transform="translate(-279.27 -204.25)"></path>
  <path class="cls-2" d="M508.12,347.92c-2.92,0-4.85-.94-5.32-3.33-2.28,2.16-5.56,3.33-9.89,3.33-6.5,0-11.77-4.27-11.77-13.58,0-10.06,5.86-16.14,14.52-16.14a31.62,31.62,0,0,1,6.55.7V303.33l6.61-1.17,1.06.88v37.45c0,2.28,1.46,2.8,3.39,2.28C514.85,344.82,513.91,347.92,508.12,347.92Zm-5.91-7.31v-16a15.65,15.65,0,0,0-5.38-1c-4.86,0-7.72,3.51-7.72,9.36s2.33,9.24,6.9,9.24A14.89,14.89,0,0,0,502.21,340.61Z" transform="translate(-279.27 -204.25)"></path>
  <path class="cls-2" d="M516.8,319h7.6L531,340.37l.47.06L538.34,319h6.73l.7,1.11-16.33,42.6-6-1.28-.47-1.29,6-12.7-2.23-.06-10.53-27.27Z" transform="translate(-279.27 -204.25)"></path>
  <polygon class="cls-1" points="225.58 90.95 225.58 63.09 230.62 63.09 230.62 90.48 226.17 91.41 225.58 90.95"></polygon>
  <path class="cls-1" d="M551.42,270.21a5.8,5.8,0,0,1,5.87-5.79,5.25,5.25,0,0,1,5.44,5.56,5.79,5.79,0,0,1-5.9,5.76A5.2,5.2,0,0,1,551.42,270.21Zm9.79-.2a3.89,3.89,0,0,0-4-4.18,4.28,4.28,0,0,0-4.28,4.35,3.89,3.89,0,0,0,3.93,4.16A4.3,4.3,0,0,0,561.21,270Zm-2.51,1.08,1,1.58-.08.15h-1.29l-.79-1.44c-.35-.61-.7-.78-1.14-.73v2.17h-1.2v-5.47c2.6-.26,3.83.12,3.83,1.43a1.56,1.56,0,0,1-1.11,1.46l0,.06A1.88,1.88,0,0,1,558.7,271.09Zm-2.34-1.34c1,0,1.34-.39,1.34-.88s-.49-.82-1.34-.7Z" transform="translate(-279.27 -204.25)"></path>
  <path class="cls-3" d="M326.11,260s-.66-.51-1.8-1.45l-1.51,1.51c2.05,1.73,3.31,2.7,3.31,2.7s1.24-1,3.3-2.69l-1.52-1.51C326.76,259.52,326.11,260,326.11,260Z" transform="translate(-279.27 -204.25)"></path>
  <path class="cls-3" d="M331.63,215.81l1.65,1.65,2.28-2.27,1.82,1.72,1.46-1.47c-2.27-2.18-4.39-4.11-6.22-5.72l-1.49,1.49c.83.72,1.73,1.51,2.7,2.39Z" transform="translate(-279.27 -204.25)"></path>
  <polygon class="cls-3" points="43.45 20.46 45.1 22.12 46.83 20.39 48.6 22.16 50.25 20.51 48.48 18.74 51.03 16.19 49.38 14.54 46.83 17.08 44.28 14.53 42.63 16.19 45.17 18.74 43.45 20.46"></polygon>
  <path class="cls-3" d="M316.64,215.19l2.27,2.27,1.66-1.65-2.2-2.2q1.45-1.32,2.7-2.4l-1.49-1.48c-1.82,1.6-3.92,3.51-6.17,5.68l1.46,1.46Z" transform="translate(-279.27 -204.25)"></path>
  <polygon class="cls-3" points="61.57 26.73 59.92 25.08 57.37 27.63 55.65 25.9 53.99 27.56 55.72 29.28 53.99 31 55.65 32.66 57.37 30.94 59.92 33.48 61.58 31.83 59.03 29.28 61.57 26.73"></polygon>
  <path class="cls-3" d="M342.77,222.3c.57.6,1.14,1.2,1.67,1.78l-2.27,2.27,1.65,1.65,2.21-2.2q1.32,1.45,2.4,2.7l1.48-1.49c-1.6-1.82-3.51-3.91-5.68-6.17Z" transform="translate(-279.27 -204.25)"></path>
  <path class="cls-3" d="M309.48,222.27,308,220.8c-2.18,2.28-4.11,4.39-5.72,6.22l1.49,1.49c.72-.83,1.52-1.73,2.39-2.7l2.2,2.19,1.66-1.65-2.27-2.27C308.31,223.49,308.89,222.88,309.48,222.27Z" transform="translate(-279.27 -204.25)"></path>
  <polygon class="cls-3" points="38.06 32.7 39.71 31.05 37.94 29.28 39.71 27.51 38.06 25.86 36.29 27.63 33.74 25.08 32.08 26.73 34.63 29.28 32.08 31.83 33.74 33.48 36.29 30.94 38.06 32.7"></polygon>
  <path class="cls-3" d="M326.11,207s.66.51,1.8,1.45l1.51-1.51c-2.06-1.73-3.31-2.71-3.31-2.71s-1.26,1-3.32,2.72l1.51,1.51C325.44,207.54,326.11,207,326.11,207Z" transform="translate(-279.27 -204.25)"></path>
  <path class="cls-3" d="M346,241.26l-2.2-2.2-1.65,1.66,2.26,2.27-1.67,1.77,1.46,1.46c2.17-2.25,4.08-4.35,5.68-6.17l-1.48-1.49Q347.34,239.8,346,241.26Z" transform="translate(-279.27 -204.25)"></path>
  <path class="cls-3" d="M301,231.74l-1.51-1.51c-1.72,2.05-2.69,3.3-2.69,3.3s1,1.25,2.7,3.31l1.51-1.52c-.93-1.14-1.45-1.8-1.45-1.8S300.11,232.87,301,231.74Z" transform="translate(-279.27 -204.25)"></path>
  <path class="cls-3" d="M308.37,239.06l-2.18,2.19q-1.32-1.45-2.4-2.7L302.3,240c1.61,1.83,3.54,3.94,5.73,6.22l1.46-1.47c-.59-.61-1.17-1.23-1.72-1.82l2.25-2.25Z" transform="translate(-279.27 -204.25)"></path>
  <path class="cls-3" d="M335.55,251.87l-2.27-2.26-1.65,1.65,2.19,2.2c-1,.88-1.87,1.67-2.7,2.39l1.49,1.49c1.83-1.61,3.95-3.54,6.22-5.72l-1.46-1.47C336.75,250.74,336.14,251.33,335.55,251.87Z" transform="translate(-279.27 -204.25)"></path>
  <path class="cls-3" d="M320.57,251.26l-1.66-1.65-2.25,2.25c-.58-.53-1.17-1.1-1.78-1.68l-1.46,1.47c2.26,2.17,4.35,4.08,6.17,5.68l1.49-1.49c-.83-.72-1.73-1.52-2.7-2.39Z" transform="translate(-279.27 -204.25)"></path>
  <polygon class="cls-3" points="50.25 38.05 48.6 36.4 46.83 38.17 45.1 36.44 43.45 38.1 45.17 39.82 42.63 42.37 44.28 44.02 46.83 41.48 49.38 44.02 51.03 42.37 48.48 39.82 50.25 38.05"></polygon>
  <polygon class="cls-3" points="73.47 25.96 71.96 27.47 73.71 29.28 71.93 31.13 73.45 32.64 76.79 29.28 73.47 25.96"></polygon>
  <path class="cls-4" d="M352.71,215.81l1.66,1.65,2.27-2.27,1.82,1.72,1.46-1.47c-2.27-2.18-4.38-4.11-6.21-5.72l-1.49,1.49c.83.72,1.73,1.51,2.7,2.39Z" transform="translate(-279.27 -204.25)"></path>
  <polygon class="cls-4" points="64.53 20.46 66.19 22.12 67.91 20.39 69.68 22.16 71.34 20.51 69.57 18.74 72.12 16.19 70.46 14.54 67.92 17.08 65.37 14.53 63.71 16.19 66.26 18.74 64.53 20.46"></polygon>
  <path class="cls-4" d="M337.73,215.19l2.27,2.27,1.65-1.65-2.19-2.2c1-.88,1.87-1.68,2.69-2.4l-1.48-1.48c-1.82,1.6-3.92,3.51-6.18,5.68l1.47,1.46Z" transform="translate(-279.27 -204.25)"></path>
  <polygon class="cls-4" points="82.66 26.73 81 25.08 78.46 27.63 76.73 25.9 75.08 27.56 76.8 29.28 75.08 31 76.73 32.66 78.46 30.94 81 33.48 82.66 31.83 80.11 29.28 82.66 26.73"></polygon>
  <path class="cls-4" d="M363.85,222.3c.58.6,1.15,1.2,1.68,1.78l-2.28,2.27,1.66,1.65,2.2-2.2q1.32,1.45,2.4,2.7L371,227c-1.61-1.82-3.52-3.91-5.68-6.17Z" transform="translate(-279.27 -204.25)"></path>
  <polygon class="cls-4" points="94.56 25.96 93.04 27.47 94.8 29.28 93.02 31.13 94.53 32.64 97.88 29.28 94.56 25.96"></polygon>
  <polygon class="cls-4" points="42.78 27.47 41.27 25.96 37.94 29.28 41.29 32.64 42.8 31.13 41.02 29.28 42.78 27.47"></polygon>
  <path class="cls-4" d="M330.56,222.27l-1.46-1.47c-2.19,2.28-4.11,4.39-5.73,6.22l1.49,1.49q1.08-1.24,2.4-2.7l2.2,2.19,1.65-1.65-2.27-2.27C329.39,223.49,330,222.88,330.56,222.27Z" transform="translate(-279.27 -204.25)"></path>
  <polygon class="cls-4" points="59.14 32.7 60.8 31.05 59.03 29.28 60.8 27.51 59.14 25.86 57.37 27.63 54.83 25.08 53.17 26.73 55.72 29.28 53.17 31.83 54.82 33.48 57.37 30.94 59.14 32.7"></polygon>
  <path class="cls-4" d="M347.19,207s.66.51,1.8,1.45L350.5,207c-2.05-1.73-3.31-2.71-3.31-2.71s-1.26,1-3.32,2.72l1.51,1.51C346.53,207.54,347.19,207,347.19,207Z" transform="translate(-279.27 -204.25)"></path>
  <path class="cls-4" d="M367.11,241.26l-2.2-2.2-1.66,1.66,2.27,2.27c-.53.57-1.1,1.17-1.68,1.77l1.47,1.46c2.16-2.25,4.07-4.35,5.68-6.17l-1.49-1.49C368.78,239.39,368,240.29,367.11,241.26Z" transform="translate(-279.27 -204.25)"></path>
  <path class="cls-4" d="M347.19,260s-.66-.51-1.8-1.45l-1.51,1.51c2.06,1.73,3.31,2.7,3.31,2.7s1.25-1,3.3-2.69L349,258.59C347.85,259.52,347.19,260,347.19,260Z" transform="translate(-279.27 -204.25)"></path>
  <path class="cls-4" d="M329.46,239.06l-2.19,2.19q-1.32-1.45-2.4-2.7L323.39,240c1.61,1.83,3.54,3.94,5.72,6.22l1.46-1.47L328.85,243l2.26-2.25Z" transform="translate(-279.27 -204.25)"></path>
  <path class="cls-4" d="M356.63,251.87l-2.26-2.26-1.66,1.65,2.2,2.2c-1,.88-1.87,1.67-2.7,2.39l1.48,1.49c1.84-1.61,3.95-3.54,6.22-5.72l-1.46-1.47C357.83,250.74,357.22,251.33,356.63,251.87Z" transform="translate(-279.27 -204.25)"></path>
  <path class="cls-4" d="M341.65,251.26,340,249.61l-2.26,2.25c-.57-.53-1.17-1.1-1.77-1.68l-1.46,1.47c2.25,2.17,4.35,4.08,6.17,5.68l1.49-1.49c-.83-.72-1.73-1.52-2.7-2.39Z" transform="translate(-279.27 -204.25)"></path>
  <polygon class="cls-4" points="71.34 38.05 69.68 36.4 67.92 38.17 66.19 36.44 64.53 38.1 66.26 39.82 63.71 42.37 65.37 44.02 67.91 41.48 70.46 44.02 72.12 42.37 69.57 39.82 71.34 38.05"></polygon>
  <polygon class="cls-2" points="63.87 27.47 62.36 25.96 59.04 29.28 62.39 32.64 63.9 31.13 62.12 29.28 63.87 27.47"></polygon>
  <path class="cls-2" d="M373.79,215.81l1.65,1.65,2.28-2.27,1.82,1.72,1.46-1.47c-2.27-2.18-4.39-4.11-6.22-5.72l-1.49,1.49c.83.72,1.74,1.51,2.7,2.39Z" transform="translate(-279.27 -204.25)"></path>
  <polygon class="cls-2" points="85.61 20.46 87.27 22.12 88.99 20.39 90.76 22.16 92.41 20.51 90.64 18.74 93.19 16.19 91.54 14.54 88.99 17.08 86.44 14.53 84.79 16.19 87.34 18.74 85.61 20.46"></polygon>
  <path class="cls-2" d="M358.8,215.19l2.27,2.27,1.66-1.65-2.2-2.2q1.46-1.32,2.7-2.4l-1.49-1.48c-1.82,1.6-3.91,3.51-6.17,5.68l1.46,1.46Z" transform="translate(-279.27 -204.25)"></path>
  <polygon class="cls-2" points="103.73 26.73 102.08 25.08 99.53 27.63 97.81 25.9 96.15 27.56 97.88 29.28 96.15 31 97.81 32.66 99.53 30.94 102.08 33.48 103.74 31.83 101.19 29.28 103.73 26.73"></polygon>
  <path class="cls-2" d="M384.93,222.3l1.68,1.78-2.28,2.27L386,228l2.21-2.2q1.32,1.45,2.4,2.7l1.48-1.49c-1.6-1.82-3.51-3.91-5.68-6.17Z" transform="translate(-279.27 -204.25)"></path>
  <path class="cls-2" d="M394.83,230.21l-1.51,1.52c.94,1.13,1.45,1.79,1.45,1.79s-.51.67-1.46,1.81l1.52,1.52c1.73-2.07,2.71-3.33,2.71-3.33S396.57,232.27,394.83,230.21Z" transform="translate(-279.27 -204.25)"></path>
  <path class="cls-2" d="M351.64,222.27l-1.47-1.47c-2.18,2.28-4.1,4.39-5.72,6.22l1.49,1.49c.72-.83,1.52-1.73,2.39-2.7l2.2,2.19,1.66-1.65-2.27-2.27C350.47,223.49,351.05,222.88,351.64,222.27Z" transform="translate(-279.27 -204.25)"></path>
  <polygon class="cls-2" points="80.22 32.7 81.87 31.05 80.1 29.28 81.87 27.51 80.22 25.86 78.45 27.63 75.9 25.08 74.25 26.73 76.79 29.28 74.25 31.83 75.9 33.48 78.45 30.94 80.22 32.7"></polygon>
  <path class="cls-2" d="M368.27,207s.66.51,1.8,1.45l1.51-1.51c-2.06-1.73-3.31-2.71-3.31-2.71s-1.26,1-3.32,2.72l1.51,1.51C367.6,207.54,368.27,207,368.27,207Z" transform="translate(-279.27 -204.25)"></path>
  <path class="cls-2" d="M388.18,241.26l-2.2-2.2-1.65,1.66L386.6,243l-1.68,1.77,1.46,1.46c2.17-2.25,4.08-4.35,5.68-6.17l-1.48-1.49Q389.5,239.8,388.18,241.26Z" transform="translate(-279.27 -204.25)"></path>
  <path class="cls-2" d="M368.27,260s-.66-.51-1.8-1.45L365,260.09c2.05,1.73,3.31,2.7,3.31,2.7s1.25-1,3.3-2.69l-1.52-1.51C368.92,259.52,368.27,260,368.27,260Z" transform="translate(-279.27 -204.25)"></path>
  <path class="cls-2" d="M350.53,239.06l-2.18,2.19q-1.32-1.45-2.4-2.7L344.46,240c1.62,1.83,3.54,3.94,5.73,6.22l1.46-1.47c-.59-.61-1.17-1.23-1.72-1.82l2.26-2.25Z" transform="translate(-279.27 -204.25)"></path>
  <path class="cls-2" d="M377.71,251.87l-2.27-2.26-1.65,1.65,2.19,2.2c-1,.88-1.87,1.67-2.7,2.39l1.49,1.49c1.83-1.61,4-3.54,6.22-5.72l-1.46-1.47C378.91,250.74,378.3,251.33,377.71,251.87Z" transform="translate(-279.27 -204.25)"></path>
  <path class="cls-2" d="M362.73,251.26l-1.66-1.65-2.25,2.25c-.58-.53-1.17-1.1-1.77-1.68l-1.47,1.47c2.26,2.17,4.36,4.08,6.18,5.68l1.48-1.49c-.83-.72-1.73-1.52-2.7-2.39Z" transform="translate(-279.27 -204.25)"></path>
  <polygon class="cls-2" points="92.41 38.05 90.76 36.4 88.99 38.17 87.27 36.44 85.61 38.1 87.34 39.82 84.79 42.37 86.44 44.02 88.99 41.48 91.54 44.02 93.19 42.37 90.64 39.82 92.41 38.05"></polygon>
</svg>
